<svg version="1.1" id="Layer_1" xmlns="http://www.w3.org/2000/svg" xmlns:xlink="http://www.w3.org/1999/xlink" x="0px" y="0px"
	 width="100%" viewBox="0 0 1403 252" enable-background="new 0 0 1403 252" xml:space="preserve">
<path fill="#FEFEFE" opacity="1.000000" stroke="none" 
	d="
M1036.000000,253.000000 
	C690.666748,253.000000 345.833527,253.000000 1.000231,253.000000 
	C1.000154,169.000122 1.000154,85.000259 1.000077,1.000288 
	C468.666382,1.000192 936.332764,1.000192 1403.999268,1.000096 
	C1403.999512,84.999710 1403.999512,168.999420 1403.999756,252.999573 
	C1281.500000,253.000000 1159.000000,253.000000 1036.000000,253.000000 
M892.500000,181.857895 
	C682.762939,181.857895 473.025940,181.857895 263.309143,181.857895 
	C263.309143,197.942276 263.309143,213.336670 263.309143,228.577148 
	C636.831909,228.577148 1010.008362,228.577148 1383.131104,228.577148 
	C1383.131104,212.891525 1383.131104,197.627792 1383.131104,181.857819 
	C1219.720703,181.857819 1056.610352,181.857819 892.500000,181.857895 
M1218.155762,65.291931 
	C1218.224854,64.422119 1218.293823,63.552315 1218.447754,61.613972 
	C1220.045166,64.293747 1221.078735,65.967911 1222.055298,67.674660 
	C1237.077759,93.931831 1252.127441,120.173515 1267.055908,146.484009 
	C1268.542236,149.103790 1270.138794,150.218307 1273.254517,150.087479 
	C1279.908447,149.808060 1286.594360,149.763443 1293.243164,150.098465 
	C1296.787231,150.277054 1298.454346,148.864563 1300.117676,145.960114 
	C1315.317383,119.417503 1330.673706,92.964485 1345.995605,66.491913 
	C1346.762939,65.166298 1347.635864,63.901756 1349.215576,61.422413 
	C1349.215576,91.791458 1349.215576,120.702553 1349.215576,149.624680 
	C1360.627686,149.624680 1371.662354,149.624680 1382.521973,149.624680 
	C1382.521973,110.668053 1382.521973,72.089401 1382.521973,33.181580 
	C1364.396362,33.181580 1346.591675,33.115711 1328.790161,33.317856 
	C1327.491821,33.332596 1325.765869,35.034962 1325.001343,36.384708 
	C1319.513428,46.071480 1314.227905,55.872826 1308.869019,65.632751 
	C1300.771118,80.381035 1292.665649,95.125145 1284.289185,110.370209 
	C1282.966187,108.089073 1281.949585,106.399437 1280.992676,104.676613 
	C1268.645508,82.447784 1256.198853,60.272758 1244.070923,37.924919 
	C1242.008423,34.124672 1239.717651,32.982437 1235.545654,33.073326 
	C1222.387207,33.359978 1209.218628,33.179031 1196.053955,33.179031 
	C1192.439087,33.179031 1188.824219,33.179028 1185.212524,33.179028 
	C1185.212524,72.429909 1185.212524,111.135406 1185.212524,149.757751 
	C1196.323853,149.757751 1207.090576,149.757751 1218.156006,149.757751 
	C1218.156006,121.719933 1218.156006,93.925270 1218.155762,65.291931 
M597.355591,141.935730 
	C603.144348,137.255005 605.475403,130.654602 606.937317,123.777756 
	C611.065186,104.360664 611.298889,84.718498 608.733765,65.140175 
	C606.190125,45.726364 596.539856,36.000931 576.895691,34.079254 
	C560.692810,32.494213 544.322144,32.144592 528.025391,32.136745 
	C512.555725,32.129303 497.040985,32.749477 481.627136,34.052612 
	C463.554199,35.580547 456.149109,42.360630 452.635620,60.175556 
	C448.635529,80.457726 449.599854,101.016518 451.460602,121.421089 
	C452.567902,133.563416 459.323029,142.598999 471.205322,146.674850 
	C476.337280,148.435211 481.869843,149.904175 487.235931,149.957947 
	C514.541687,150.231598 541.857056,150.265503 569.159058,149.798569 
	C578.773254,149.634155 588.378052,147.877823 597.355591,141.935730 
M315.501587,105.002884 
	C336.733490,105.002884 357.965393,105.002884 379.473816,105.002884 
	C379.473816,120.347626 379.473816,134.963715 379.473816,149.684586 
	C391.469513,149.684586 403.178101,149.684586 414.797333,149.684586 
	C414.797333,110.776741 414.797333,72.187607 414.797333,33.406021 
	C402.983826,33.406021 391.409882,33.406021 379.274597,33.406021 
	C379.274597,47.657803 379.274597,61.694340 379.274597,75.679123 
	C352.151855,75.679123 325.592163,75.679123 298.689941,75.679123 
	C298.689941,61.434166 298.689941,47.505009 298.689941,33.464348 
	C286.778870,33.464348 275.215057,33.464348 263.585480,33.464348 
	C263.585480,72.444542 263.585480,111.137123 263.585480,149.671906 
	C275.529999,149.671906 287.110901,149.671906 299.119019,149.671906 
	C299.119019,134.619614 299.119019,119.894165 299.119019,105.002884 
	C304.537201,105.002884 309.520081,105.002884 315.501587,105.002884 
M952.222778,60.500088 
	C952.222778,51.545784 952.222778,42.591480 952.222778,33.463654 
	C940.177063,33.463654 928.609741,33.463654 916.647217,33.463654 
	C916.647217,47.674683 916.647217,61.611492 916.647217,75.644966 
	C889.557678,75.644966 862.866333,75.644966 835.823853,75.644966 
	C835.823853,61.365189 835.823853,47.439384 835.823853,33.567917 
	C823.932678,33.567917 812.398987,33.567917 800.853027,33.567917 
	C800.853027,72.525757 800.853027,111.098846 800.853027,149.719086 
	C812.680786,149.719086 824.252197,149.719086 836.230103,149.719086 
	C836.230103,134.704117 836.230103,119.964935 836.230103,105.294075 
	C863.211853,105.294075 889.782288,105.294075 916.817505,105.294075 
	C916.817505,120.301987 916.817505,135.021835 916.817505,149.715073 
	C928.870544,149.715073 940.453979,149.715073 952.222778,149.715073 
	C952.222778,120.121063 952.222778,90.810577 952.222778,60.500088 
M1007.724854,101.190910 
	C998.762573,117.235817 989.800293,133.280716 980.460693,150.001190 
	C993.480164,150.001190 1005.727600,150.078430 1017.970581,149.879395 
	C1019.169250,149.859894 1020.742554,148.377625 1021.453979,147.169266 
	C1024.401611,142.162979 1026.907959,136.890839 1029.974243,131.964050 
	C1030.885254,130.500275 1033.089844,128.967285 1034.714355,128.953522 
	C1057.694336,128.759033 1080.676758,128.759995 1103.656738,128.948746 
	C1105.318970,128.962387 1107.625854,130.398911 1108.500488,131.854401 
	C1111.488037,136.826080 1113.837769,142.177826 1116.736084,147.208725 
	C1117.466431,148.476349 1119.320923,149.857727 1120.681641,149.881439 
	C1132.625610,150.089554 1144.574829,150.001907 1157.031738,150.001907 
	C1156.587524,149.022400 1156.372314,148.454010 1156.083984,147.925400 
	C1135.728516,110.601631 1115.397461,73.264435 1094.891113,36.023762 
	C1094.106079,34.598175 1091.638672,33.330448 1089.933350,33.301987 
	C1076.614502,33.079643 1063.288452,33.300175 1049.968994,33.092884 
	C1046.677246,33.041653 1045.008179,34.085388 1043.425171,36.965252 
	C1031.744873,58.214916 1019.856689,79.350311 1007.724854,101.190910 
M692.646973,150.004196 
	C702.395447,150.004196 712.143860,150.004196 722.254639,150.004196 
	C722.254639,120.435768 722.254639,91.534775 722.254639,62.200886 
	C739.693970,62.200886 756.758179,62.200886 773.705566,62.200886 
	C773.705566,52.337212 773.705566,42.914436 773.705566,33.419373 
	C727.187744,33.419373 680.961487,33.419373 634.478760,33.419373 
	C634.478760,43.073288 634.478760,52.486382 634.478760,62.573029 
	C651.765930,62.573029 668.965820,62.573029 686.680420,62.573029 
	C686.680420,92.105003 686.680420,120.969101 686.680420,150.004196 
	C688.706116,150.004196 690.199036,150.004196 692.646973,150.004196 
M132.466736,63.896439 
	C110.043770,60.304279 91.895607,67.590729 77.988441,85.449745 
	C68.150307,98.083488 64.656578,119.985413 69.872246,129.228104 
	C69.755547,99.820084 88.057503,74.496918 110.597328,73.337791 
	C99.956245,93.547821 89.395744,113.604805 78.394455,134.498962 
	C88.835472,134.498962 98.406830,134.498962 108.692299,134.498962 
	C100.532494,154.454742 92.688576,173.637970 84.844658,192.821198 
	C85.354973,193.166321 85.865288,193.511459 86.375610,193.856583 
	C110.063225,166.687973 133.750839,139.519379 157.438461,112.350769 
	C157.229355,111.915840 157.020248,111.480904 156.811142,111.045975 
	C147.814453,111.045975 138.817764,111.045975 129.019836,111.045975 
	C135.097900,99.272537 140.700974,88.419189 146.296585,77.580261 
	C162.212952,84.894844 175.606522,103.042694 174.893555,127.852631 
	C175.183060,127.753273 175.622223,127.736031 175.731110,127.537552 
	C175.961823,127.117104 176.155228,126.594643 176.129272,126.127029 
	C175.690033,118.209335 176.593063,109.903511 174.483978,102.452057 
	C168.609253,81.696510 154.291611,69.051170 132.466736,63.896439 
M33.150082,235.618134 
	C36.740692,236.173721 40.327625,237.180420 43.922531,237.209732 
	C63.413239,237.368774 82.905922,237.293060 102.397903,237.274033 
	C103.957436,237.272507 105.516777,237.088089 107.668579,236.950882 
	C105.478745,229.465881 102.923225,222.726486 101.624466,215.753021 
	C100.212303,208.170639 96.872971,203.420410 89.096558,201.354141 
	C85.942497,200.516083 83.678123,200.238831 80.823082,201.795181 
	C73.230865,205.933823 65.444321,209.715027 57.831284,213.816956 
	C55.149052,215.262146 53.047817,215.517609 50.751091,213.122513 
	C46.262226,208.441406 41.640335,203.883667 36.967770,199.384689 
	C34.603249,197.107986 34.882782,195.030106 36.417141,192.374619 
	C40.744682,184.885071 44.850597,177.266830 48.993961,169.672089 
	C49.695942,168.385376 51.032425,166.404816 50.580814,165.692169 
	C46.725407,159.608231 47.655788,150.215897 37.185944,148.610046 
	C29.453114,147.424011 22.054436,144.059387 14.409719,141.634598 
	C14.172445,142.741226 13.979122,143.222839 13.978827,143.704590 
	C13.965276,165.861862 13.512695,188.032333 14.153205,210.171127 
	C14.497752,222.080231 21.068727,230.742828 33.150082,235.618134 
M140.831390,224.329956 
	C139.567596,228.430038 138.303818,232.530121 136.836121,237.291748 
	C139.045914,237.291748 140.672363,237.291794 142.298813,237.291733 
	C161.460281,237.291031 180.621796,237.318024 199.783203,237.281723 
	C218.579865,237.246109 230.564011,225.213806 230.617599,206.286087 
	C230.670914,187.458023 230.635513,168.629669 230.620316,149.801468 
	C230.619156,148.355240 230.469666,146.909149 230.358124,144.906586 
	C220.413574,147.740433 210.892334,150.471558 201.360031,153.163376 
	C195.611069,154.786804 192.278046,162.372040 195.034760,167.693771 
	C199.243759,175.819107 203.353271,183.999557 207.755783,192.018936 
	C209.119217,194.502472 208.950180,196.217758 207.035934,198.125702 
	C201.971161,203.173737 196.892838,208.212891 191.983170,213.409821 
	C189.532547,216.003845 187.328949,215.559448 184.569321,213.978836 
	C177.206909,209.761871 169.731964,205.740601 162.284409,201.673309 
	C156.999588,198.787186 147.797684,202.523026 145.882660,208.348434 
	C144.221069,213.402954 142.648758,218.486801 140.831390,224.329956 
M13.940304,53.563522 
	C13.940304,73.202324 13.940304,92.841118 13.940304,113.008614 
	C20.543859,111.063995 26.620670,108.678307 32.922348,107.561935 
	C41.825581,105.984665 47.902802,102.119240 50.356785,92.861984 
	C51.091381,90.090851 51.570004,88.188202 50.141777,85.575287 
	C45.914497,77.841576 42.130737,69.865051 37.886803,62.141026 
	C36.499199,59.615574 36.666065,57.907536 38.664814,56.043419 
	C43.648544,51.395370 48.628998,46.741791 53.514702,41.991627 
	C55.495895,40.065403 57.167603,39.969143 59.624268,41.398586 
	C67.384460,45.913956 75.304131,50.157459 83.204559,54.427601 
	C84.626640,55.196228 86.624054,56.475590 87.718323,56.012547 
	C93.563690,53.539066 101.019707,53.644199 102.643867,44.679619 
	C104.072029,36.796879 107.269302,29.234663 109.854271,20.991938 
	C107.332779,20.991938 105.682060,20.991926 104.031349,20.991938 
	C84.545433,20.992081 65.059509,20.982662 45.573597,20.995029 
	C25.582815,21.007719 13.966343,32.619911 13.940304,53.563522 
M156.615677,57.028111 
	C158.784439,56.964394 161.277588,57.577927 163.066437,56.721054 
	C171.312057,52.771324 179.419113,48.517540 187.444992,44.133186 
	C189.774246,42.860771 191.351852,43.071835 193.064362,44.872707 
	C198.218887,50.293243 203.385651,55.702717 208.601196,61.064411 
	C210.731003,63.253918 210.349854,65.281181 208.942825,67.745094 
	C204.406433,75.689034 199.924957,83.672935 195.764923,91.816444 
	C194.864090,93.579880 195.014908,96.131111 195.336380,98.218613 
	C196.115707,103.279594 199.579880,105.483978 204.411560,106.568832 
	C209.087997,107.618828 213.584732,109.456421 218.179688,110.886047 
	C222.067749,112.095741 225.983398,113.216728 230.630280,114.597946 
	C230.630280,109.823837 230.648056,105.874947 230.627228,101.926254 
	C230.530594,83.606735 231.018158,65.258537 230.135040,46.976723 
	C229.403900,31.841331 216.960632,21.179888 201.754990,21.007349 
	C194.259491,20.922293 186.762253,20.989016 179.265808,20.988609 
	C166.291214,20.987909 153.316620,20.988415 139.671326,20.988415 
	C142.231964,29.761181 145.024796,37.920410 146.907715,46.284473 
	C148.127106,51.701183 150.419785,55.369213 156.615677,57.028111 
M149.320724,183.832901 
	C170.784470,173.142670 182.959488,155.791229 185.886063,132.096054 
	C187.185059,121.578590 186.088989,116.278885 183.322372,114.238777 
	C186.801636,153.303879 150.931290,184.213730 117.050545,179.082016 
	C126.161362,165.835663 135.195953,152.700134 144.230545,139.564606 
	C143.803345,139.232941 143.376129,138.901276 142.948914,138.569611 
	C129.494492,154.403030 116.040054,170.236450 102.120728,186.616974 
	C118.592102,191.508896 133.757492,190.732803 149.320724,183.832901 
M61.646076,145.856689 
	C65.630203,158.475540 72.948166,168.663528 83.877945,176.950394 
	C85.037834,173.936172 85.975533,171.499344 87.016716,168.793610 
	C69.457161,156.500565 61.948090,138.746872 59.668350,118.096146 
	C57.469967,127.414177 58.791451,136.316238 61.646076,145.856689 
z"/>
<path fill="#D67625" opacity="1.000000" stroke="none" 
	d="
M893.000000,181.857849 
	C1056.610352,181.857819 1219.720703,181.857819 1383.131104,181.857819 
	C1383.131104,197.627792 1383.131104,212.891525 1383.131104,228.577148 
	C1010.008362,228.577148 636.831909,228.577148 263.309143,228.577148 
	C263.309143,213.336670 263.309143,197.942276 263.309143,181.857895 
	C473.025940,181.857895 682.762939,181.857895 893.000000,181.857849 
z"/>
<path fill="#020202" opacity="1.000000" stroke="none" 
	d="
M1218.155884,65.711273 
	C1218.156006,93.925270 1218.156006,121.719933 1218.156006,149.757751 
	C1207.090576,149.757751 1196.323853,149.757751 1185.212524,149.757751 
	C1185.212524,111.135406 1185.212524,72.429909 1185.212524,33.179028 
	C1188.824219,33.179028 1192.439087,33.179031 1196.053955,33.179031 
	C1209.218628,33.179031 1222.387207,33.359978 1235.545654,33.073326 
	C1239.717651,32.982437 1242.008423,34.124672 1244.070923,37.924919 
	C1256.198853,60.272758 1268.645508,82.447784 1280.992676,104.676613 
	C1281.949585,106.399437 1282.966187,108.089073 1284.289185,110.370209 
	C1292.665649,95.125145 1300.771118,80.381035 1308.869019,65.632751 
	C1314.227905,55.872826 1319.513428,46.071480 1325.001343,36.384708 
	C1325.765869,35.034962 1327.491821,33.332596 1328.790161,33.317856 
	C1346.591675,33.115711 1364.396362,33.181580 1382.521973,33.181580 
	C1382.521973,72.089401 1382.521973,110.668053 1382.521973,149.624680 
	C1371.662354,149.624680 1360.627686,149.624680 1349.215576,149.624680 
	C1349.215576,120.702553 1349.215576,91.791458 1349.215576,61.422413 
	C1347.635864,63.901756 1346.762939,65.166298 1345.995605,66.491913 
	C1330.673706,92.964485 1315.317383,119.417503 1300.117676,145.960114 
	C1298.454346,148.864563 1296.787231,150.277054 1293.243164,150.098465 
	C1286.594360,149.763443 1279.908447,149.808060 1273.254517,150.087479 
	C1270.138794,150.218307 1268.542236,149.103790 1267.055908,146.484009 
	C1252.127441,120.173515 1237.077759,93.931831 1222.055298,67.674660 
	C1221.078735,65.967911 1220.045166,64.293747 1218.447754,61.613972 
	C1218.293823,63.552315 1218.224854,64.422119 1218.155884,65.711273 
z"/>
<path fill="#020202" opacity="1.000000" stroke="none" 
	d="
M597.048950,142.135559 
	C588.378052,147.877823 578.773254,149.634155 569.159058,149.798569 
	C541.857056,150.265503 514.541687,150.231598 487.235931,149.957947 
	C481.869843,149.904175 476.337280,148.435211 471.205322,146.674850 
	C459.323029,142.598999 452.567902,133.563416 451.460602,121.421089 
	C449.599854,101.016518 448.635529,80.457726 452.635620,60.175556 
	C456.149109,42.360630 463.554199,35.580547 481.627136,34.052612 
	C497.040985,32.749477 512.555725,32.129303 528.025391,32.136745 
	C544.322144,32.144592 560.692810,32.494213 576.895691,34.079254 
	C596.539856,36.000931 606.190125,45.726364 608.733765,65.140175 
	C611.298889,84.718498 611.065186,104.360664 606.937317,123.777756 
	C605.475403,130.654602 603.144348,137.255005 597.048950,142.135559 
M571.537781,68.263016 
	C568.220154,62.307556 562.309387,61.302784 556.489624,61.207214 
	C540.173096,60.939262 523.847717,61.045979 507.528473,61.232857 
	C503.905731,61.274342 500.288605,62.221432 496.678009,62.807781 
	C491.419922,63.661690 487.694092,67.083420 487.524353,71.987122 
	C487.072052,85.052246 487.219116,98.164192 487.804199,111.227234 
	C488.063812,117.023712 492.313416,120.513557 498.106567,121.007393 
	C506.548218,121.726997 515.032288,122.354782 523.495422,122.320290 
	C535.965088,122.269478 548.456665,121.948227 560.891357,121.068863 
	C568.672363,120.518585 572.419556,116.939987 573.266907,109.113754 
	C574.194946,100.542542 574.199280,91.833244 574.025146,83.195847 
	C573.929260,78.441368 572.639099,73.710968 571.537781,68.263016 
z"/>
<path fill="#020202" opacity="1.000000" stroke="none" 
	d="
M315.002258,105.002884 
	C309.520081,105.002884 304.537201,105.002884 299.119019,105.002884 
	C299.119019,119.894165 299.119019,134.619614 299.119019,149.671906 
	C287.110901,149.671906 275.529999,149.671906 263.585480,149.671906 
	C263.585480,111.137123 263.585480,72.444542 263.585480,33.464348 
	C275.215057,33.464348 286.778870,33.464348 298.689941,33.464348 
	C298.689941,47.505009 298.689941,61.434166 298.689941,75.679123 
	C325.592163,75.679123 352.151855,75.679123 379.274597,75.679123 
	C379.274597,61.694340 379.274597,47.657803 379.274597,33.406021 
	C391.409882,33.406021 402.983826,33.406021 414.797333,33.406021 
	C414.797333,72.187607 414.797333,110.776741 414.797333,149.684586 
	C403.178101,149.684586 391.469513,149.684586 379.473816,149.684586 
	C379.473816,134.963715 379.473816,120.347626 379.473816,105.002884 
	C357.965393,105.002884 336.733490,105.002884 315.002258,105.002884 
z"/>
<path fill="#000000" opacity="1.000000" stroke="none" 
	d="
M952.222778,61.000092 
	C952.222778,90.810577 952.222778,120.121063 952.222778,149.715073 
	C940.453979,149.715073 928.870544,149.715073 916.817505,149.715073 
	C916.817505,135.021835 916.817505,120.301987 916.817505,105.294075 
	C889.782288,105.294075 863.211853,105.294075 836.230103,105.294075 
	C836.230103,119.964935 836.230103,134.704117 836.230103,149.719086 
	C824.252197,149.719086 812.680786,149.719086 800.853027,149.719086 
	C800.853027,111.098846 800.853027,72.525757 800.853027,33.567917 
	C812.398987,33.567917 823.932678,33.567917 835.823853,33.567917 
	C835.823853,47.439384 835.823853,61.365189 835.823853,75.644966 
	C862.866333,75.644966 889.557678,75.644966 916.647217,75.644966 
	C916.647217,61.611492 916.647217,47.674683 916.647217,33.463654 
	C928.609741,33.463654 940.177063,33.463654 952.222778,33.463654 
	C952.222778,42.591480 952.222778,51.545784 952.222778,61.000092 
z"/>
<path fill="#020202" opacity="1.000000" stroke="none" 
	d="
M1007.879395,100.856293 
	C1019.856689,79.350311 1031.744873,58.214916 1043.425171,36.965252 
	C1045.008179,34.085388 1046.677246,33.041653 1049.968994,33.092884 
	C1063.288452,33.300175 1076.614502,33.079643 1089.933350,33.301987 
	C1091.638672,33.330448 1094.106079,34.598175 1094.891113,36.023762 
	C1115.397461,73.264435 1135.728516,110.601631 1156.083984,147.925400 
	C1156.372314,148.454010 1156.587524,149.022400 1157.031738,150.001907 
	C1144.574829,150.001907 1132.625610,150.089554 1120.681641,149.881439 
	C1119.320923,149.857727 1117.466431,148.476349 1116.736084,147.208725 
	C1113.837769,142.177826 1111.488037,136.826080 1108.500488,131.854401 
	C1107.625854,130.398911 1105.318970,128.962387 1103.656738,128.948746 
	C1080.676758,128.759995 1057.694336,128.759033 1034.714355,128.953522 
	C1033.089844,128.967285 1030.885254,130.500275 1029.974243,131.964050 
	C1026.907959,136.890839 1024.401611,142.162979 1021.453979,147.169266 
	C1020.742554,148.377625 1019.169250,149.859894 1017.970581,149.879395 
	C1005.727600,150.078430 993.480164,150.001190 980.460693,150.001190 
	C989.800293,133.280716 998.762573,117.235817 1007.879395,100.856293 
M1068.184570,59.969566 
	C1060.223389,74.738441 1052.262085,89.507324 1044.123657,104.604950 
	C1061.214966,104.604950 1077.271362,104.604950 1093.711914,104.604950 
	C1093.353760,103.681458 1093.186523,103.060898 1092.888916,102.511009 
	C1085.384277,88.646637 1077.874634,74.784958 1070.321411,60.947063 
	C1069.992554,60.344425 1069.243286,59.971302 1068.184570,59.969566 
z"/>
<path fill="#030303" opacity="1.000000" stroke="none" 
	d="
M692.169495,150.004196 
	C690.199036,150.004196 688.706116,150.004196 686.680420,150.004196 
	C686.680420,120.969101 686.680420,92.105003 686.680420,62.573029 
	C668.965820,62.573029 651.765930,62.573029 634.478760,62.573029 
	C634.478760,52.486382 634.478760,43.073288 634.478760,33.419373 
	C680.961487,33.419373 727.187744,33.419373 773.705566,33.419373 
	C773.705566,42.914436 773.705566,52.337212 773.705566,62.200886 
	C756.758179,62.200886 739.693970,62.200886 722.254639,62.200886 
	C722.254639,91.534775 722.254639,120.435768 722.254639,150.004196 
	C712.143860,150.004196 702.395447,150.004196 692.169495,150.004196 
z"/>
<path fill="#050505" opacity="1.000000" stroke="none" 
	d="
M132.894684,63.935295 
	C154.291611,69.051170 168.609253,81.696510 174.483978,102.452057 
	C176.593063,109.903511 175.690033,118.209335 176.129272,126.127029 
	C176.155228,126.594643 175.961823,127.117104 175.731110,127.537552 
	C175.622223,127.736031 175.183060,127.753273 174.891815,127.847580 
	C175.606522,103.042694 162.212952,84.894844 146.296585,77.580261 
	C140.700974,88.419189 135.097900,99.272537 129.019836,111.045975 
	C138.817764,111.045975 147.814453,111.045975 156.811142,111.045975 
	C157.020248,111.480904 157.229355,111.915840 157.438461,112.350769 
	C133.750839,139.519379 110.063225,166.687973 86.375610,193.856583 
	C85.865288,193.511459 85.354973,193.166321 84.844658,192.821198 
	C92.688576,173.637970 100.532494,154.454742 108.692299,134.498962 
	C98.406830,134.498962 88.835472,134.498962 78.394455,134.498962 
	C89.395744,113.604805 99.956245,93.547821 110.597328,73.337791 
	C88.057503,74.496918 69.755547,99.820084 69.872246,129.228104 
	C64.656578,119.985413 68.150307,98.083488 77.988441,85.449745 
	C91.895607,67.590729 110.043770,60.304279 132.894684,63.935295 
z"/>
<path fill="#D67727" opacity="1.000000" stroke="none" 
	d="
M32.782707,235.459976 
	C21.068727,230.742828 14.497752,222.080231 14.153205,210.171127 
	C13.512695,188.032333 13.965276,165.861862 13.978827,143.704590 
	C13.979122,143.222839 14.172445,142.741226 14.409719,141.634598 
	C22.054436,144.059387 29.453114,147.424011 37.185944,148.610046 
	C47.655788,150.215897 46.725407,159.608231 50.580814,165.692169 
	C51.032425,166.404816 49.695942,168.385376 48.993961,169.672089 
	C44.850597,177.266830 40.744682,184.885071 36.417141,192.374619 
	C34.882782,195.030106 34.603249,197.107986 36.967770,199.384689 
	C41.640335,203.883667 46.262226,208.441406 50.751091,213.122513 
	C53.047817,215.517609 55.149052,215.262146 57.831284,213.816956 
	C65.444321,209.715027 73.230865,205.933823 80.823082,201.795181 
	C83.678123,200.238831 85.942497,200.516083 89.096558,201.354141 
	C96.872971,203.420410 100.212303,208.170639 101.624466,215.753021 
	C102.923225,222.726486 105.478745,229.465881 107.668579,236.950882 
	C105.516777,237.088089 103.957436,237.272507 102.397903,237.274033 
	C82.905922,237.293060 63.413239,237.368774 43.922531,237.209732 
	C40.327625,237.180420 36.740692,236.173721 32.782707,235.459976 
z"/>
<path fill="#D77829" opacity="1.000000" stroke="none" 
	d="
M140.934189,223.943817 
	C142.648758,218.486801 144.221069,213.402954 145.882660,208.348434 
	C147.797684,202.523026 156.999588,198.787186 162.284409,201.673309 
	C169.731964,205.740601 177.206909,209.761871 184.569321,213.978836 
	C187.328949,215.559448 189.532547,216.003845 191.983170,213.409821 
	C196.892838,208.212891 201.971161,203.173737 207.035934,198.125702 
	C208.950180,196.217758 209.119217,194.502472 207.755783,192.018936 
	C203.353271,183.999557 199.243759,175.819107 195.034760,167.693771 
	C192.278046,162.372040 195.611069,154.786804 201.360031,153.163376 
	C210.892334,150.471558 220.413574,147.740433 230.358124,144.906586 
	C230.469666,146.909149 230.619156,148.355240 230.620316,149.801468 
	C230.635513,168.629669 230.670914,187.458023 230.617599,206.286087 
	C230.564011,225.213806 218.579865,237.246109 199.783203,237.281723 
	C180.621796,237.318024 161.460281,237.291031 142.298813,237.291733 
	C140.672363,237.291794 139.045914,237.291748 136.836121,237.291748 
	C138.303818,232.530121 139.567596,228.430038 140.934189,223.943817 
z"/>
<path fill="#D67727" opacity="1.000000" stroke="none" 
	d="
M13.940318,53.076050 
	C13.966343,32.619911 25.582815,21.007719 45.573597,20.995029 
	C65.059509,20.982662 84.545433,20.992081 104.031349,20.991938 
	C105.682060,20.991926 107.332779,20.991938 109.854271,20.991938 
	C107.269302,29.234663 104.072029,36.796879 102.643867,44.679619 
	C101.019707,53.644199 93.563690,53.539066 87.718323,56.012547 
	C86.624054,56.475590 84.626640,55.196228 83.204559,54.427601 
	C75.304131,50.157459 67.384460,45.913956 59.624268,41.398586 
	C57.167603,39.969143 55.495895,40.065403 53.514702,41.991627 
	C48.628998,46.741791 43.648544,51.395370 38.664814,56.043419 
	C36.666065,57.907536 36.499199,59.615574 37.886803,62.141026 
	C42.130737,69.865051 45.914497,77.841576 50.141777,85.575287 
	C51.570004,88.188202 51.091381,90.090851 50.356785,92.861984 
	C47.902802,102.119240 41.825581,105.984665 32.922348,107.561935 
	C26.620670,108.678307 20.543859,111.063995 13.940304,113.008614 
	C13.940304,92.841118 13.940304,73.202324 13.940318,53.076050 
z"/>
<path fill="#D77828" opacity="1.000000" stroke="none" 
	d="
M156.270599,56.850376 
	C150.419785,55.369213 148.127106,51.701183 146.907715,46.284473 
	C145.024796,37.920410 142.231964,29.761181 139.671326,20.988415 
	C153.316620,20.988415 166.291214,20.987909 179.265808,20.988609 
	C186.762253,20.989016 194.259491,20.922293 201.754990,21.007349 
	C216.960632,21.179888 229.403900,31.841331 230.135040,46.976723 
	C231.018158,65.258537 230.530594,83.606735 230.627228,101.926254 
	C230.648056,105.874947 230.630280,109.823837 230.630280,114.597946 
	C225.983398,113.216728 222.067749,112.095741 218.179688,110.886047 
	C213.584732,109.456421 209.087997,107.618828 204.411560,106.568832 
	C199.579880,105.483978 196.115707,103.279594 195.336380,98.218613 
	C195.014908,96.131111 194.864090,93.579880 195.764923,91.816444 
	C199.924957,83.672935 204.406433,75.689034 208.942825,67.745094 
	C210.349854,65.281181 210.731003,63.253918 208.601196,61.064411 
	C203.385651,55.702717 198.218887,50.293243 193.064362,44.872707 
	C191.351852,43.071835 189.774246,42.860771 187.444992,44.133186 
	C179.419113,48.517540 171.312057,52.771324 163.066437,56.721054 
	C161.277588,57.577927 158.784439,56.964394 156.270599,56.850376 
z"/>
<path fill="#0C0C0C" opacity="1.000000" stroke="none" 
	d="
M148.965240,183.964432 
	C133.757492,190.732803 118.592102,191.508896 102.120728,186.616974 
	C116.040054,170.236450 129.494492,154.403030 142.948914,138.569611 
	C143.376129,138.901276 143.803345,139.232941 144.230545,139.564606 
	C135.195953,152.700134 126.161362,165.835663 117.050545,179.082016 
	C150.931290,184.213730 186.801636,153.303879 183.322372,114.238777 
	C186.088989,116.278885 187.185059,121.578590 185.886063,132.096054 
	C182.959488,155.791229 170.784470,173.142670 148.965240,183.964432 
z"/>
<path fill="#0F0F0F" opacity="1.000000" stroke="none" 
	d="
M61.468418,145.497589 
	C58.791451,136.316238 57.469967,127.414177 59.668350,118.096146 
	C61.948090,138.746872 69.457161,156.500565 87.016716,168.793610 
	C85.975533,171.499344 85.037834,173.936172 83.877945,176.950394 
	C72.948166,168.663528 65.630203,158.475540 61.468418,145.497589 
z"/>
<path fill="#FEFEFE" opacity="1.000000" stroke="none" 
	d="
M571.712524,68.616364 
	C572.639099,73.710968 573.929260,78.441368 574.025146,83.195847 
	C574.199280,91.833244 574.194946,100.542542 573.266907,109.113754 
	C572.419556,116.939987 568.672363,120.518585 560.891357,121.068863 
	C548.456665,121.948227 535.965088,122.269478 523.495422,122.320290 
	C515.032288,122.354782 506.548218,121.726997 498.106567,121.007393 
	C492.313416,120.513557 488.063812,117.023712 487.804199,111.227234 
	C487.219116,98.164192 487.072052,85.052246 487.524353,71.987122 
	C487.694092,67.083420 491.419922,63.661690 496.678009,62.807781 
	C500.288605,62.221432 503.905731,61.274342 507.528473,61.232857 
	C523.847717,61.045979 540.173096,60.939262 556.489624,61.207214 
	C562.309387,61.302784 568.220154,62.307556 571.712524,68.616364 
z"/>
<path fill="#F9F9F9" opacity="1.000000" stroke="none" 
	d="
M1068.437256,59.730400 
	C1069.243286,59.971302 1069.992554,60.344425 1070.321411,60.947063 
	C1077.874634,74.784958 1085.384277,88.646637 1092.888916,102.511009 
	C1093.186523,103.060898 1093.353760,103.681458 1093.711914,104.604950 
	C1077.271362,104.604950 1061.214966,104.604950 1044.123657,104.604950 
	C1052.262085,89.507324 1060.223389,74.738441 1068.437256,59.730400 
z"/>
</svg>
